<?xml version="1.0" encoding="UTF-8" standalone="no"?>
<!DOCTYPE svg PUBLIC "-//W3C//DTD SVG 1.1//EN"
 "http://www.w3.org/Graphics/SVG/1.1/DTD/svg11.dtd">
<!-- Generated by graphviz version 2.38.0 (20140413.2041)
 -->
<!-- Title: controllers_diagram Pages: 1 -->
<svg width="708pt" height="678pt"
 viewBox="0.00 0.00 708.00 678.00" xmlns="http://www.w3.org/2000/svg" xmlns:xlink="http://www.w3.org/1999/xlink">
<g id="graph0" class="graph" transform="scale(1 1) rotate(0) translate(251 389)">
<title>controllers_diagram</title>
<polygon fill="white" stroke="none" points="-251,289 -251,-389 457,-389 457,289 -251,289"/>
<!-- _diagram_info -->
<g id="node1" class="node"><title>_diagram_info</title>
<text text-anchor="start" x="-239" y="183.4" font-family="Times,serif" font-size="13.00">Controllers diagram</text>
<text text-anchor="start" x="-239" y="197.4" font-family="Times,serif" font-size="13.00">Date: Jul 10 2015 &#45; 23:04</text>
<text text-anchor="start" x="-239" y="211.4" font-family="Times,serif" font-size="13.00">Migration version: 20150710220118</text>
<text text-anchor="start" x="-239" y="225.4" font-family="Times,serif" font-size="13.00">Generated by RailRoady 1.3.0</text>
<text text-anchor="start" x="-239" y="239.4" font-family="Times,serif" font-size="13.00">http://railroady.prestonlee.com</text>
</g>
<!-- RequisitionsController -->
<g id="node2" class="node"><title>RequisitionsController</title>
<path fill="none" stroke="black" d="M-64,132.5C-64,132.5 52,132.5 52,132.5 58,132.5 64,126.5 64,120.5 64,120.5 64,-98.5 64,-98.5 64,-104.5 58,-110.5 52,-110.5 52,-110.5 -64,-110.5 -64,-110.5 -70,-110.5 -76,-104.5 -76,-98.5 -76,-98.5 -76,120.5 -76,120.5 -76,126.5 -70,132.5 -64,132.5"/>
<text text-anchor="middle" x="-6" y="-95.3" font-family="Times,serif" font-size="14.00">RequisitionsController</text>
<polyline fill="none" stroke="black" points="-76,-87.5 64,-87.5 "/>
<text text-anchor="start" x="-68" y="-72.3" font-family="Times,serif" font-size="14.00">create</text>
<text text-anchor="start" x="-68" y="-57.3" font-family="Times,serif" font-size="14.00">destroy</text>
<text text-anchor="start" x="-68" y="-42.3" font-family="Times,serif" font-size="14.00">edit</text>
<text text-anchor="start" x="-68" y="-27.3" font-family="Times,serif" font-size="14.00">index</text>
<text text-anchor="start" x="-68" y="-12.3" font-family="Times,serif" font-size="14.00">new</text>
<text text-anchor="start" x="-68" y="2.7" font-family="Times,serif" font-size="14.00">select_questions</text>
<text text-anchor="start" x="-68" y="17.7" font-family="Times,serif" font-size="14.00">show</text>
<text text-anchor="start" x="-68" y="32.7" font-family="Times,serif" font-size="14.00">update</text>
<polyline fill="none" stroke="black" points="-76,40.5 64,40.5 "/>
<polyline fill="none" stroke="black" points="-76,64.5 64,64.5 "/>
<text text-anchor="start" x="-68" y="79.7" font-family="Times,serif" font-size="14.00">_layout</text>
<text text-anchor="start" x="-68" y="94.7" font-family="Times,serif" font-size="14.00">property_types</text>
<text text-anchor="start" x="-68" y="109.7" font-family="Times,serif" font-size="14.00">requisition_params</text>
<text text-anchor="start" x="-68" y="124.7" font-family="Times,serif" font-size="14.00">set_requisition</text>
</g>
<!-- RequiQuestionsController -->
<g id="node3" class="node"><title>RequiQuestionsController</title>
<path fill="none" stroke="black" d="M107,94C107,94 241,94 241,94 247,94 253,88 253,82 253,82 253,-122 253,-122 253,-128 247,-134 241,-134 241,-134 107,-134 107,-134 101,-134 95,-128 95,-122 95,-122 95,82 95,82 95,88 101,94 107,94"/>
<text text-anchor="middle" x="174" y="-118.8" font-family="Times,serif" font-size="14.00">RequiQuestionsController</text>
<polyline fill="none" stroke="black" points="95,-111 253,-111 "/>
<text text-anchor="start" x="103" y="-95.8" font-family="Times,serif" font-size="14.00">create</text>
<text text-anchor="start" x="103" y="-80.8" font-family="Times,serif" font-size="14.00">destroy</text>
<text text-anchor="start" x="103" y="-65.8" font-family="Times,serif" font-size="14.00">edit</text>
<text text-anchor="start" x="103" y="-50.8" font-family="Times,serif" font-size="14.00">index</text>
<text text-anchor="start" x="103" y="-35.8" font-family="Times,serif" font-size="14.00">new</text>
<text text-anchor="start" x="103" y="-20.8" font-family="Times,serif" font-size="14.00">show</text>
<text text-anchor="start" x="103" y="-5.8" font-family="Times,serif" font-size="14.00">update</text>
<polyline fill="none" stroke="black" points="95,2 253,2 "/>
<polyline fill="none" stroke="black" points="95,26 253,26 "/>
<text text-anchor="start" x="103" y="41.2" font-family="Times,serif" font-size="14.00">_layout</text>
<text text-anchor="start" x="103" y="56.2" font-family="Times,serif" font-size="14.00">requ</text>
<text text-anchor="start" x="103" y="71.2" font-family="Times,serif" font-size="14.00">requi_question_params</text>
<text text-anchor="start" x="103" y="86.2" font-family="Times,serif" font-size="14.00">set_requi_question</text>
</g>
<!-- AnswerQuestionsController -->
<g id="node4" class="node"><title>AnswerQuestionsController</title>
<path fill="none" stroke="black" d="M297,284.5C297,284.5 441,284.5 441,284.5 447,284.5 453,278.5 453,272.5 453,272.5 453,173.5 453,173.5 453,167.5 447,161.5 441,161.5 441,161.5 297,161.5 297,161.5 291,161.5 285,167.5 285,173.5 285,173.5 285,272.5 285,272.5 285,278.5 291,284.5 297,284.5"/>
<text text-anchor="middle" x="369" y="176.7" font-family="Times,serif" font-size="14.00">AnswerQuestionsController</text>
<polyline fill="none" stroke="black" points="285,184.5 453,184.5 "/>
<text text-anchor="start" x="293" y="199.7" font-family="Times,serif" font-size="14.00">index</text>
<text text-anchor="start" x="293" y="214.7" font-family="Times,serif" font-size="14.00">save</text>
<text text-anchor="start" x="293" y="229.7" font-family="Times,serif" font-size="14.00">set_requisition</text>
<polyline fill="none" stroke="black" points="285,237.5 453,237.5 "/>
<polyline fill="none" stroke="black" points="285,261.5 453,261.5 "/>
<text text-anchor="start" x="293" y="276.7" font-family="Times,serif" font-size="14.00">_layout</text>
</g>
<!-- SelectQuestionsController -->
<g id="node5" class="node"><title>SelectQuestionsController</title>
<path fill="none" stroke="black" d="M106.5,265C106.5,265 241.5,265 241.5,265 247.5,265 253.5,259 253.5,253 253.5,253 253.5,139 253.5,139 253.5,133 247.5,127 241.5,127 241.5,127 106.5,127 106.5,127 100.5,127 94.5,133 94.5,139 94.5,139 94.5,253 94.5,253 94.5,259 100.5,265 106.5,265"/>
<text text-anchor="middle" x="174" y="142.2" font-family="Times,serif" font-size="14.00">SelectQuestionsController</text>
<polyline fill="none" stroke="black" points="94.5,150 253.5,150 "/>
<text text-anchor="start" x="102.5" y="165.2" font-family="Times,serif" font-size="14.00">index</text>
<text text-anchor="start" x="102.5" y="180.2" font-family="Times,serif" font-size="14.00">questions</text>
<text text-anchor="start" x="102.5" y="195.2" font-family="Times,serif" font-size="14.00">set</text>
<text text-anchor="start" x="102.5" y="210.2" font-family="Times,serif" font-size="14.00">set_requisition</text>
<polyline fill="none" stroke="black" points="94.5,218 253.5,218 "/>
<polyline fill="none" stroke="black" points="94.5,242 253.5,242 "/>
<text text-anchor="start" x="102.5" y="257.2" font-family="Times,serif" font-size="14.00">_layout</text>
</g>
<!-- ApplicationController -->
<g id="node6" class="node"><title>ApplicationController</title>
<path fill="none" stroke="black" d="M-235,-20C-235,-20 -123,-20 -123,-20 -117,-20 -111,-26 -111,-32 -111,-32 -111,-102 -111,-102 -111,-108 -117,-114 -123,-114 -123,-114 -235,-114 -235,-114 -241,-114 -247,-108 -247,-102 -247,-102 -247,-32 -247,-32 -247,-26 -241,-20 -235,-20"/>
<text text-anchor="middle" x="-179" y="-98.8" font-family="Times,serif" font-size="14.00">ApplicationController</text>
<polyline fill="none" stroke="black" points="-247,-91 -111,-91 "/>
<polyline fill="none" stroke="black" points="-247,-67 -111,-67 "/>
<polyline fill="none" stroke="black" points="-247,-43 -111,-43 "/>
<text text-anchor="start" x="-239" y="-27.8" font-family="Times,serif" font-size="14.00">_layout</text>
</g>
<!-- QuestionsController -->
<g id="node7" class="node"><title>QuestionsController</title>
<path fill="none" stroke="black" d="M183,-171.5C183,-171.5 285,-171.5 285,-171.5 291,-171.5 297,-177.5 297,-183.5 297,-183.5 297,-372.5 297,-372.5 297,-378.5 291,-384.5 285,-384.5 285,-384.5 183,-384.5 183,-384.5 177,-384.5 171,-378.5 171,-372.5 171,-372.5 171,-183.5 171,-183.5 171,-177.5 177,-171.5 183,-171.5"/>
<text text-anchor="middle" x="234" y="-369.3" font-family="Times,serif" font-size="14.00">QuestionsController</text>
<polyline fill="none" stroke="black" points="171,-361.5 297,-361.5 "/>
<text text-anchor="start" x="179" y="-346.3" font-family="Times,serif" font-size="14.00">create</text>
<text text-anchor="start" x="179" y="-331.3" font-family="Times,serif" font-size="14.00">destroy</text>
<text text-anchor="start" x="179" y="-316.3" font-family="Times,serif" font-size="14.00">edit</text>
<text text-anchor="start" x="179" y="-301.3" font-family="Times,serif" font-size="14.00">index</text>
<text text-anchor="start" x="179" y="-286.3" font-family="Times,serif" font-size="14.00">new</text>
<text text-anchor="start" x="179" y="-271.3" font-family="Times,serif" font-size="14.00">show</text>
<text text-anchor="start" x="179" y="-256.3" font-family="Times,serif" font-size="14.00">update</text>
<polyline fill="none" stroke="black" points="171,-248.5 297,-248.5 "/>
<polyline fill="none" stroke="black" points="171,-224.5 297,-224.5 "/>
<text text-anchor="start" x="179" y="-209.3" font-family="Times,serif" font-size="14.00">_layout</text>
<text text-anchor="start" x="179" y="-194.3" font-family="Times,serif" font-size="14.00">question_params</text>
<text text-anchor="start" x="179" y="-179.3" font-family="Times,serif" font-size="14.00">set_question</text>
</g>
<!-- RequiAnswersController -->
<g id="node8" class="node"><title>RequiAnswersController</title>
<path fill="none" stroke="black" d="M-83,-152.5C-83,-152.5 45,-152.5 45,-152.5 51,-152.5 57,-158.5 57,-164.5 57,-164.5 57,-353.5 57,-353.5 57,-359.5 51,-365.5 45,-365.5 45,-365.5 -83,-365.5 -83,-365.5 -89,-365.5 -95,-359.5 -95,-353.5 -95,-353.5 -95,-164.5 -95,-164.5 -95,-158.5 -89,-152.5 -83,-152.5"/>
<text text-anchor="middle" x="-19" y="-350.3" font-family="Times,serif" font-size="14.00">RequiAnswersController</text>
<polyline fill="none" stroke="black" points="-95,-342.5 57,-342.5 "/>
<text text-anchor="start" x="-87" y="-327.3" font-family="Times,serif" font-size="14.00">create</text>
<text text-anchor="start" x="-87" y="-312.3" font-family="Times,serif" font-size="14.00">destroy</text>
<text text-anchor="start" x="-87" y="-297.3" font-family="Times,serif" font-size="14.00">edit</text>
<text text-anchor="start" x="-87" y="-282.3" font-family="Times,serif" font-size="14.00">index</text>
<text text-anchor="start" x="-87" y="-267.3" font-family="Times,serif" font-size="14.00">new</text>
<text text-anchor="start" x="-87" y="-252.3" font-family="Times,serif" font-size="14.00">show</text>
<text text-anchor="start" x="-87" y="-237.3" font-family="Times,serif" font-size="14.00">update</text>
<polyline fill="none" stroke="black" points="-95,-229.5 57,-229.5 "/>
<polyline fill="none" stroke="black" points="-95,-205.5 57,-205.5 "/>
<text text-anchor="start" x="-87" y="-190.3" font-family="Times,serif" font-size="14.00">_layout</text>
<text text-anchor="start" x="-87" y="-175.3" font-family="Times,serif" font-size="14.00">requi_answer_params</text>
<text text-anchor="start" x="-87" y="-160.3" font-family="Times,serif" font-size="14.00">set_requi_answer</text>
</g>
</g>
</svg>
