<?xml version="1.0" encoding="UTF-8" standalone="no"?>
<!DOCTYPE svg PUBLIC "-//W3C//DTD SVG 1.1//EN"
 "http://www.w3.org/Graphics/SVG/1.1/DTD/svg11.dtd">
<!-- Generated by graphviz version 2.38.0 (20140413.2041)
 -->
<!-- Title: models_diagram Pages: 1 -->
<svg width="442pt" height="230pt"
 viewBox="0.00 0.00 441.83 230.00" xmlns="http://www.w3.org/2000/svg" xmlns:xlink="http://www.w3.org/1999/xlink">
<g id="graph0" class="graph" transform="scale(1 1) rotate(0) translate(4 226)">
<title>models_diagram</title>
<polygon fill="white" stroke="none" points="-4,4 -4,-226 437.831,-226 437.831,4 -4,4"/>
<!-- _diagram_info -->
<g id="node1" class="node"><title>_diagram_info</title>
<text text-anchor="start" x="8" y="-207.6" font-family="Times,serif" font-size="13.00">Models diagram</text>
<text text-anchor="start" x="8" y="-193.6" font-family="Times,serif" font-size="13.00">Date: Jul 10 2015 &#45; 23:04</text>
<text text-anchor="start" x="8" y="-179.6" font-family="Times,serif" font-size="13.00">Migration version: 20150710220118</text>
<text text-anchor="start" x="8" y="-165.6" font-family="Times,serif" font-size="13.00">Generated by RailRoady 1.3.0</text>
<text text-anchor="start" x="8" y="-151.6" font-family="Times,serif" font-size="13.00">http://railroady.prestonlee.com</text>
</g>
<!-- Answer -->
<g id="node2" class="node"><title>Answer</title>
<ellipse fill="none" stroke="black" cx="97" cy="-90" rx="38.1938" ry="18"/>
<text text-anchor="middle" x="97" y="-86.3" font-family="Times,serif" font-size="14.00">Answer</text>
</g>
<!-- Question -->
<g id="node6" class="node"><title>Question</title>
<ellipse fill="none" stroke="black" cx="271" cy="-18" rx="42.4939" ry="18"/>
<text text-anchor="middle" x="271" y="-14.3" font-family="Times,serif" font-size="14.00">Question</text>
</g>
<!-- Answer&#45;&gt;Question -->
<g id="edge1" class="edge"><title>Answer&#45;&gt;Question</title>
<path fill="none" stroke="#c3c620" d="M133.156,-74.4546C162.53,-62.6375 203.817,-46.0275 233.538,-34.0711"/>
<ellipse fill="none" stroke="#c3c620" cx="129.054" cy="-76.1046" rx="4.00001" ry="4.00001"/>
<ellipse fill="#c3c620" stroke="#c3c620" cx="237.5" cy="-32.477" rx="4.00001" ry="4.00001"/>
</g>
<!-- RequiAnswer -->
<g id="node3" class="node"><title>RequiAnswer</title>
<ellipse fill="none" stroke="black" cx="212" cy="-90" rx="59.2899" ry="18"/>
<text text-anchor="middle" x="212" y="-86.3" font-family="Times,serif" font-size="14.00">RequiAnswer</text>
</g>
<!-- RequiQuestion -->
<g id="node4" class="node"><title>RequiQuestion</title>
<ellipse fill="none" stroke="black" cx="353" cy="-90" rx="63.8893" ry="18"/>
<text text-anchor="middle" x="353" y="-86.3" font-family="Times,serif" font-size="14.00">RequiQuestion</text>
</g>
<!-- Requisition -->
<g id="node5" class="node"><title>Requisition</title>
<ellipse fill="none" stroke="black" cx="283" cy="-183" rx="51.1914" ry="18"/>
<text text-anchor="middle" x="283" y="-179.3" font-family="Times,serif" font-size="14.00">Requisition</text>
</g>
<!-- Requisition&#45;&gt;Answer -->
<g id="edge4" class="edge"><title>Requisition&#45;&gt;Answer</title>
<path fill="none" stroke="#06dfd7" d="M252.262,-161.155C243.039,-155.28 232.773,-149.105 223,-144 194.681,-129.208 161.301,-115.316 136.014,-105.468"/>
<polygon fill="#06dfd7" stroke="#06dfd7" points="252.344,-161.208 258.285,-170.426 256.539,-163.929 260.734,-166.65 260.734,-166.65 260.734,-166.65 256.539,-163.929 263.183,-162.875 252.344,-161.208 252.344,-161.208"/>
<polygon fill="#06dfd7" stroke="#06dfd7" points="135.735,-105.361 128.02,-97.5685 131.069,-103.564 126.403,-101.768 126.403,-101.768 126.403,-101.768 131.069,-103.564 124.786,-105.967 135.735,-105.361 135.735,-105.361"/>
</g>
<!-- Requisition&#45;&gt;RequiAnswer -->
<g id="edge3" class="edge"><title>Requisition&#45;&gt;RequiAnswer</title>
<path fill="none" stroke="#6c2b1d" d="M264.888,-158.787C254.555,-145.542 241.61,-128.951 231.114,-115.498"/>
<ellipse fill="none" stroke="#6c2b1d" cx="267.517" cy="-162.156" rx="4.00002" ry="4.00002"/>
<polygon fill="#6c2b1d" stroke="#6c2b1d" points="231.091,-115.469 228.488,-104.817 228.016,-111.527 224.94,-107.585 224.94,-107.585 224.94,-107.585 228.016,-111.527 221.392,-110.353 231.091,-115.469 231.091,-115.469"/>
</g>
<!-- Requisition&#45;&gt;RequiQuestion -->
<g id="edge2" class="edge"><title>Requisition&#45;&gt;RequiQuestion</title>
<path fill="none" stroke="#1f9d80" d="M300.823,-158.829C310.847,-145.799 323.37,-129.519 333.635,-116.175"/>
<ellipse fill="none" stroke="#1f9d80" cx="298.278" cy="-162.139" rx="4.00002" ry="4.00002"/>
<polygon fill="#1f9d80" stroke="#1f9d80" points="333.908,-115.819 343.572,-110.637 336.957,-111.856 340.005,-107.893 340.005,-107.893 340.005,-107.893 336.957,-111.856 336.438,-105.149 333.908,-115.819 333.908,-115.819"/>
</g>
<!-- Requisition&#45;&gt;Question -->
<g id="edge5" class="edge"><title>Requisition&#45;&gt;Question</title>
<path fill="none" stroke="#8d2b0e" d="M331.127,-167.74C383.812,-149.58 456.953,-115.297 426,-72 402.817,-39.5727 358.556,-26.7663 323.246,-21.8162"/>
<polygon fill="#8d2b0e" stroke="#8d2b0e" points="331.04,-167.768 320.129,-166.674 326.299,-169.355 321.557,-170.941 321.557,-170.941 321.557,-170.941 326.299,-169.355 322.985,-175.209 331.04,-167.768 331.04,-167.768"/>
<polygon fill="#8d2b0e" stroke="#8d2b0e" points="323.006,-21.7868 313.629,-16.1021 318.044,-21.1777 313.081,-20.5686 313.081,-20.5686 313.081,-20.5686 318.044,-21.1777 312.533,-25.0351 323.006,-21.7868 323.006,-21.7868"/>
</g>
</g>
</svg>
