<?xml version="1.0" encoding="UTF-8" standalone="no"?>
<!DOCTYPE svg PUBLIC "-//W3C//DTD SVG 1.1//EN"
 "http://www.w3.org/Graphics/SVG/1.1/DTD/svg11.dtd">
<!-- Generated by graphviz version 2.38.0 (20140413.2041)
 -->
<!-- Title: models_diagram Pages: 1 -->
<svg width="480pt" height="401pt"
 viewBox="0.00 0.00 479.58 401.00" xmlns="http://www.w3.org/2000/svg" xmlns:xlink="http://www.w3.org/1999/xlink">
<g id="graph0" class="graph" transform="scale(1 1) rotate(0) translate(4 397)">
<title>models_diagram</title>
<polygon fill="white" stroke="none" points="-4,4 -4,-397 475.581,-397 475.581,4 -4,4"/>
<!-- _diagram_info -->
<g id="node1" class="node"><title>_diagram_info</title>
<text text-anchor="start" x="8" y="-356.6" font-family="Times,serif" font-size="13.00">Models diagram</text>
<text text-anchor="start" x="8" y="-342.6" font-family="Times,serif" font-size="13.00">Date: Jul 10 2015 &#45; 23:04</text>
<text text-anchor="start" x="8" y="-328.6" font-family="Times,serif" font-size="13.00">Migration version: 20150710220118</text>
<text text-anchor="start" x="8" y="-314.6" font-family="Times,serif" font-size="13.00">Generated by RailRoady 1.3.0</text>
<text text-anchor="start" x="8" y="-300.6" font-family="Times,serif" font-size="13.00">http://railroady.prestonlee.com</text>
</g>
<!-- Answer -->
<g id="node2" class="node"><title>Answer</title>
<path fill="none" stroke="black" d="M14.5,-136C14.5,-136 121.5,-136 121.5,-136 127.5,-136 133.5,-142 133.5,-148 133.5,-148 133.5,-215 133.5,-215 133.5,-221 127.5,-227 121.5,-227 121.5,-227 14.5,-227 14.5,-227 8.5,-227 2.5,-221 2.5,-215 2.5,-215 2.5,-148 2.5,-148 2.5,-142 8.5,-136 14.5,-136"/>
<text text-anchor="middle" x="68" y="-211.8" font-family="Times,serif" font-size="14.00">Answer</text>
<polyline fill="none" stroke="black" points="2.5,-204 133.5,-204 "/>
<text text-anchor="start" x="10.5" y="-188.8" font-family="Times,serif" font-size="14.00">id :integer</text>
<text text-anchor="start" x="10.5" y="-173.8" font-family="Times,serif" font-size="14.00">text :string</text>
<text text-anchor="start" x="10.5" y="-158.8" font-family="Times,serif" font-size="14.00">created_at :datetime</text>
<text text-anchor="start" x="10.5" y="-143.8" font-family="Times,serif" font-size="14.00">updated_at :datetime</text>
</g>
<!-- Question -->
<g id="node6" class="node"><title>Question</title>
<path fill="none" stroke="black" d="M216.5,-0.5C216.5,-0.5 323.5,-0.5 323.5,-0.5 329.5,-0.5 335.5,-6.5 335.5,-12.5 335.5,-12.5 335.5,-79.5 335.5,-79.5 335.5,-85.5 329.5,-91.5 323.5,-91.5 323.5,-91.5 216.5,-91.5 216.5,-91.5 210.5,-91.5 204.5,-85.5 204.5,-79.5 204.5,-79.5 204.5,-12.5 204.5,-12.5 204.5,-6.5 210.5,-0.5 216.5,-0.5"/>
<text text-anchor="middle" x="270" y="-76.3" font-family="Times,serif" font-size="14.00">Question</text>
<polyline fill="none" stroke="black" points="204.5,-68.5 335.5,-68.5 "/>
<text text-anchor="start" x="212.5" y="-53.3" font-family="Times,serif" font-size="14.00">id :integer</text>
<text text-anchor="start" x="212.5" y="-38.3" font-family="Times,serif" font-size="14.00">text :string</text>
<text text-anchor="start" x="212.5" y="-23.3" font-family="Times,serif" font-size="14.00">created_at :datetime</text>
<text text-anchor="start" x="212.5" y="-8.3" font-family="Times,serif" font-size="14.00">updated_at :datetime</text>
</g>
<!-- Answer&#45;&gt;Question -->
<g id="edge1" class="edge"><title>Answer&#45;&gt;Question</title>
<path fill="none" stroke="#bb9720" d="M137.922,-131.411C139.629,-130.259 141.324,-129.121 143,-128 160.466,-116.325 179.477,-104 197.343,-92.5842"/>
<ellipse fill="none" stroke="#bb9720" cx="134.602" cy="-133.664" rx="4.00002" ry="4.00002"/>
<ellipse fill="#bb9720" stroke="#bb9720" cx="201.018" cy="-90.2404" rx="4.00002" ry="4.00002"/>
</g>
<!-- RequiAnswer -->
<g id="node3" class="node"><title>RequiAnswer</title>
<path fill="none" stroke="black" d="M163.5,-128.5C163.5,-128.5 276.5,-128.5 276.5,-128.5 282.5,-128.5 288.5,-134.5 288.5,-140.5 288.5,-140.5 288.5,-222.5 288.5,-222.5 288.5,-228.5 282.5,-234.5 276.5,-234.5 276.5,-234.5 163.5,-234.5 163.5,-234.5 157.5,-234.5 151.5,-228.5 151.5,-222.5 151.5,-222.5 151.5,-140.5 151.5,-140.5 151.5,-134.5 157.5,-128.5 163.5,-128.5"/>
<text text-anchor="middle" x="220" y="-219.3" font-family="Times,serif" font-size="14.00">RequiAnswer</text>
<polyline fill="none" stroke="black" points="151.5,-211.5 288.5,-211.5 "/>
<text text-anchor="start" x="159.5" y="-196.3" font-family="Times,serif" font-size="14.00">id :integer</text>
<text text-anchor="start" x="159.5" y="-181.3" font-family="Times,serif" font-size="14.00">requisition_id :integer</text>
<text text-anchor="start" x="159.5" y="-166.3" font-family="Times,serif" font-size="14.00">answer_id :integer</text>
<text text-anchor="start" x="159.5" y="-151.3" font-family="Times,serif" font-size="14.00">created_at :datetime</text>
<text text-anchor="start" x="159.5" y="-136.3" font-family="Times,serif" font-size="14.00">updated_at :datetime</text>
</g>
<!-- RequiQuestion -->
<g id="node4" class="node"><title>RequiQuestion</title>
<path fill="none" stroke="black" d="M318.5,-128.5C318.5,-128.5 431.5,-128.5 431.5,-128.5 437.5,-128.5 443.5,-134.5 443.5,-140.5 443.5,-140.5 443.5,-222.5 443.5,-222.5 443.5,-228.5 437.5,-234.5 431.5,-234.5 431.5,-234.5 318.5,-234.5 318.5,-234.5 312.5,-234.5 306.5,-228.5 306.5,-222.5 306.5,-222.5 306.5,-140.5 306.5,-140.5 306.5,-134.5 312.5,-128.5 318.5,-128.5"/>
<text text-anchor="middle" x="375" y="-219.3" font-family="Times,serif" font-size="14.00">RequiQuestion</text>
<polyline fill="none" stroke="black" points="306.5,-211.5 443.5,-211.5 "/>
<text text-anchor="start" x="314.5" y="-196.3" font-family="Times,serif" font-size="14.00">id :integer</text>
<text text-anchor="start" x="314.5" y="-181.3" font-family="Times,serif" font-size="14.00">requisition_id :integer</text>
<text text-anchor="start" x="314.5" y="-166.3" font-family="Times,serif" font-size="14.00">question_id :integer</text>
<text text-anchor="start" x="314.5" y="-151.3" font-family="Times,serif" font-size="14.00">created_at :datetime</text>
<text text-anchor="start" x="314.5" y="-136.3" font-family="Times,serif" font-size="14.00">updated_at :datetime</text>
</g>
<!-- Requisition -->
<g id="node5" class="node"><title>Requisition</title>
<path fill="none" stroke="black" d="M244.5,-271.5C244.5,-271.5 351.5,-271.5 351.5,-271.5 357.5,-271.5 363.5,-277.5 363.5,-283.5 363.5,-283.5 363.5,-380.5 363.5,-380.5 363.5,-386.5 357.5,-392.5 351.5,-392.5 351.5,-392.5 244.5,-392.5 244.5,-392.5 238.5,-392.5 232.5,-386.5 232.5,-380.5 232.5,-380.5 232.5,-283.5 232.5,-283.5 232.5,-277.5 238.5,-271.5 244.5,-271.5"/>
<text text-anchor="middle" x="298" y="-377.3" font-family="Times,serif" font-size="14.00">Requisition</text>
<polyline fill="none" stroke="black" points="232.5,-369.5 363.5,-369.5 "/>
<text text-anchor="start" x="240.5" y="-354.3" font-family="Times,serif" font-size="14.00">id :integer</text>
<text text-anchor="start" x="240.5" y="-339.3" font-family="Times,serif" font-size="14.00">vendor :string</text>
<text text-anchor="start" x="240.5" y="-324.3" font-family="Times,serif" font-size="14.00">purchaser :string</text>
<text text-anchor="start" x="240.5" y="-309.3" font-family="Times,serif" font-size="14.00">created_at :datetime</text>
<text text-anchor="start" x="240.5" y="-294.3" font-family="Times,serif" font-size="14.00">updated_at :datetime</text>
<text text-anchor="start" x="240.5" y="-279.3" font-family="Times,serif" font-size="14.00">property_type :string</text>
</g>
<!-- Requisition&#45;&gt;Answer -->
<g id="edge4" class="edge"><title>Requisition&#45;&gt;Answer</title>
<path fill="none" stroke="#e0ede2" d="M223.881,-271.541C223.587,-271.36 223.293,-271.179 223,-271 189.736,-250.661 176.898,-254.264 143,-235 141.661,-234.239 140.317,-233.461 138.968,-232.667"/>
<polygon fill="#e0ede2" stroke="#e0ede2" points="224.011,-271.625 229.97,-280.83 228.211,-274.338 232.411,-277.05 232.411,-277.05 232.411,-277.05 228.211,-274.338 234.852,-273.27 224.011,-271.625 224.011,-271.625"/>
<polygon fill="#e0ede2" stroke="#e0ede2" points="138.583,-232.433 132.379,-223.391 134.311,-229.834 130.04,-227.235 130.04,-227.235 130.04,-227.235 134.311,-229.834 127.701,-231.08 138.583,-232.433 138.583,-232.433"/>
</g>
<!-- Requisition&#45;&gt;RequiAnswer -->
<g id="edge3" class="edge"><title>Requisition&#45;&gt;RequiAnswer</title>
<path fill="none" stroke="#3cce67" d="M262.971,-264.311C259.408,-257.526 255.799,-250.656 252.267,-243.931"/>
<ellipse fill="none" stroke="#3cce67" cx="264.864" cy="-267.914" rx="4.00002" ry="4.00002"/>
<polygon fill="#3cce67" stroke="#3cce67" points="252.159,-243.725 251.492,-232.779 249.834,-239.298 247.508,-234.872 247.508,-234.872 247.508,-234.872 249.834,-239.298 243.525,-236.964 252.159,-243.725 252.159,-243.725"/>
</g>
<!-- Requisition&#45;&gt;RequiQuestion -->
<g id="edge2" class="edge"><title>Requisition&#45;&gt;RequiQuestion</title>
<path fill="none" stroke="#3d4012" d="M332.579,-264.311C336.098,-257.526 339.66,-250.656 343.147,-243.931"/>
<ellipse fill="none" stroke="#3d4012" cx="330.716" cy="-267.904" rx="4.00002" ry="4.00002"/>
<polygon fill="#3d4012" stroke="#3d4012" points="343.241,-243.749 351.839,-236.943 345.543,-239.311 347.844,-234.872 347.844,-234.872 347.844,-234.872 345.543,-239.311 343.849,-232.8 343.241,-243.749 343.241,-243.749"/>
</g>
<!-- Requisition&#45;&gt;Question -->
<g id="edge5" class="edge"><title>Requisition&#45;&gt;Question</title>
<path fill="none" stroke="#32c7b6" d="M372.91,-303.783C403.456,-288.547 435.624,-266.201 453,-235 476.138,-193.453 478.944,-167.855 453,-128 429.236,-91.4932 384.856,-71.3166 345.753,-60.231"/>
<polygon fill="#32c7b6" stroke="#32c7b6" points="372.521,-303.969 361.558,-304.226 368.011,-306.127 363.5,-308.285 363.5,-308.285 363.5,-308.285 368.011,-306.127 365.443,-312.344 372.521,-303.969 372.521,-303.969"/>
<polygon fill="#32c7b6" stroke="#32c7b6" points="345.6,-60.1904 337.104,-53.2572 340.77,-58.8973 335.941,-57.6042 335.941,-57.6042 335.941,-57.6042 340.77,-58.8973 334.777,-61.9511 345.6,-60.1904 345.6,-60.1904"/>
</g>
</g>
</svg>
